<?xml version="1.0" encoding="utf-8"?>
<!-- Generator: Adobe Illustrator 19.0.1, SVG Export Plug-In . SVG Version: 6.00 Build 0)  -->
<svg version="1.1" id="Capa_1" xmlns="http://www.w3.org/2000/svg" xmlns:xlink="http://www.w3.org/1999/xlink" x="0px" y="0px"
	 viewBox="-271 394.9 52 52" style="enable-background:new -271 394.9 52 52;" xml:space="preserve">
<style type="text/css">
	.st0{fill:#898686;}
</style>
<g>
	<path class="st0" d="M-245,394.9c-14.3,0-26,11.7-26,26c0,14.3,11.7,26,26,26s26-11.7,26-26C-219,406.6-230.7,394.9-245,394.9z
		 M-245,444.9c-13.2,0-24-10.8-24-24s10.8-24,24-24s24,10.8,24,24S-231.8,444.9-245,444.9z"/>
	<path class="st0" d="M-235.3,411.2c-0.4-0.4-1-0.4-1.4,0l-8.3,8.3l-8.3-8.3c-0.4-0.4-1-0.4-1.4,0c-0.4,0.4-0.4,1,0,1.4l8.3,8.3
		l-8.3,8.3c-0.4,0.4-0.4,1,0,1.4c0.2,0.2,0.5,0.3,0.7,0.3s0.5-0.1,0.7-0.3l8.3-8.3l8.3,8.3c0.2,0.2,0.5,0.3,0.7,0.3s0.5-0.1,0.7-0.3
		c0.4-0.4,0.4-1,0-1.4l-8.3-8.3l8.3-8.3C-234.9,412.2-234.9,411.6-235.3,411.2z"/>
</g>
</svg>
